#N canvas 103 39 619 718 12;
#X declare -lib rcp;
#X obj 66 156 tgl 15 0 empty empty empty 17 7 0 10 #fcfcfc #000000
#000000 0 1;
#X floatatom 86 178 5 0 0 0 - - - 0;
#X msg 288 473 getlabel;
#X msg 198 448 label test;
#X obj 46 132 bng 15 250 50 0 empty empty empty 17 7 0 10 #fcfcfc #000000
#000000;
#X msg 106 204 symbol test;
#X obj 114 649 print ID;
#X obj 167 555 print args;
#X msg 174 317 type t;
#X msg 185 417 gettype;
#X msg 174 361 type f;
#X msg 175 339 type i;
#X msg 174 383 type s;
#X msg 174 295 type b;
#X msg 174 269 type ?;
#X text 203 203 string packet;
#X text 171 246 choose a type;
#X text 234 294 bang;
#X text 234 316 toggle (boolean);
#X text 234 360 type float;
#X text 234 382 type symbol (string);
#X text 234 268 auto type (default);
#X text 286 448 set a label;
#X msg 369 511 set 2;
#X msg 198 473 clearlabel;
#X text 420 512 set id;
#X text 182 529 optional creation argument: parameter-id default id:
1;
#X text 234 338 type integer;
#X obj 86 529 rcp.format 3;
#X obj 54 625 rcp.parse;
#X text 51 603 parse rcp-packet;
#X text 73 131 a bang-packet;
#X text 94 155 a boolean-packet;
#X text 135 177 a float-packet;
#X obj 46 72 loadbang;
#X obj 46 98 t b b b b;
#X obj 17 30 declare -lib rcp;
#X text 14 9 RabbitControl for Pd;
#X obj 86 576 print rcp_format;
#X obj 54 673 print rcp_parse;
#X connect 0 0 28 0;
#X connect 1 0 28 0;
#X connect 2 0 28 0;
#X connect 3 0 28 0;
#X connect 4 0 28 0;
#X connect 5 0 28 0;
#X connect 8 0 28 0;
#X connect 9 0 28 0;
#X connect 10 0 28 0;
#X connect 11 0 28 0;
#X connect 12 0 28 0;
#X connect 13 0 28 0;
#X connect 14 0 28 0;
#X connect 23 0 28 0;
#X connect 24 0 28 0;
#X connect 28 0 29 0;
#X connect 28 0 38 0;
#X connect 28 1 7 0;
#X connect 29 0 39 0;
#X connect 29 1 6 0;
#X connect 34 0 35 0;
#X connect 35 0 4 0;
#X connect 35 1 0 0;
#X connect 35 2 1 0;
#X connect 35 3 5 0;
