#N canvas 83 57 316 310 12;
#X declare -lib rcp;
#X obj 16 35 declare -lib rcp;
#X obj 87 150 rcp.debug;
#X msg 87 124 version;
#X obj 87 173 print;
#X obj 87 98 loadbang;
#X text 14 9 RabbitControl for Pd;
#X connect 1 0 3 0;
#X connect 2 0 1 0;
#X connect 4 0 2 0;
