#N canvas 83 122 582 831 12;
#X obj 81 586 print;
#X obj 100 171 tgl 15 0 empty empty empty 17 7 0 10 -262144 -1 -1 0
1;
#X floatatom 116 196 5 0 0 0 - - -;
#X msg 283 483 getlabel;
#X msg 193 458 label test;
#X obj 82 144 bng 15 250 50 0 empty empty empty 17 7 0 10 -262144 -1
-1;
#X msg 126 224 symbol test;
#X obj 183 672 print ID;
#X obj 162 586 print args;
#X msg 152 330 type t;
#X msg 169 425 gettype;
#X msg 152 374 type f;
#X obj 123 697 print;
#X msg 153 352 type i;
#X msg 152 396 type s;
#X msg 152 308 type b;
#X msg 152 282 type ?;
#X text 14 9 RabbitControl for Pd;
#X text 136 49 - rcpformat;
#X text 45 769 see also:;
#X text 223 223 string packet;
#X text 149 259 choose a type;
#X text 212 307 bang;
#X text 212 329 toggle (boolean);
#X text 212 373 type float;
#X text 212 395 type symbol (string);
#X text 212 281 auto type (default);
#X text 281 458 set a label;
#X msg 364 521 set 2;
#X msg 193 483 clearlabel;
#X text 415 522 set id;
#X text 174 538 optional creation argument: parameter-id default id:
1;
#X text 212 351 type integer;
#X obj 47 49 rcp.format;
#X obj 81 539 rcp.format 3;
#X obj 123 768 rcp.parse;
#X obj 123 648 rcp.parse;
#X text 126 625 parse rcp-packet;
#X text 45 79 Allows you to format rcp packets independent of a rcp-server.
This can be handy if working with serial connections or similar.;
#X text 109 143 a bang-packet;
#X text 128 170 a boolean-packet;
#X text 165 195 a float-packet;
#X connect 1 0 34 0;
#X connect 2 0 34 0;
#X connect 3 0 34 0;
#X connect 4 0 34 0;
#X connect 5 0 34 0;
#X connect 6 0 34 0;
#X connect 9 0 34 0;
#X connect 10 0 34 0;
#X connect 11 0 34 0;
#X connect 13 0 34 0;
#X connect 14 0 34 0;
#X connect 15 0 34 0;
#X connect 16 0 34 0;
#X connect 28 0 34 0;
#X connect 29 0 34 0;
#X connect 34 0 0 0;
#X connect 34 0 36 0;
#X connect 34 1 8 0;
#X connect 36 0 12 0;
#X connect 36 1 7 0;
