#N canvas 66 58 468 392 12;
#X obj 75 302 rcp.debug;
#X msg 91 170 version;
#X obj 75 328 print;
#X obj 75 144 bng 15 250 50 0 empty empty empty 17 7 0 10 #fcfcfc #000000
#000000;
#X msg 111 216 debug \$1;
#X obj 111 195 tgl 15 0 empty empty empty 17 7 0 10 #fcfcfc #000000
#000000 0 1;
#X text 180 216 debug logging;
#X msg 130 256 memory;
#X text 102 143 print general information;
#X text 190 256 print memory allocation counts;
#X obj 47 49 rcp.debug;
#X text 125 48 - debug for rcp;
#X text 14 9 RabbitControl for Pd;
#X text 47 75 RabbitControl debugging tool \, it outputs information
about rcp objects.;
#X connect 0 0 2 0;
#X connect 1 0 0 0;
#X connect 3 0 0 0;
#X connect 4 0 0 0;
#X connect 5 0 4 0;
#X connect 7 0 0 0;
