#N canvas 53 52 735 604 12;
#X obj 148 372 print ID;
#X msg 88 149 1 0;
#X text 120 149 info;
#X text 128 171 initialize;
#X msg 108 193 2 18 0 1 0;
#X text 194 194 initialize with id;
#X obj 88 402 list trim;
#X msg 118 215 3 18 0 1 0;
#X text 204 216 discover with id;
#X text 213 238 remove with id;
#X msg 128 237 5 18 0 4 0;
#X obj 88 431 route info initialize discover update remove;
#X obj 271 480 print update;
#X text 14 9 RabbitControl for Pd;
#X text 487 537 see also:;
#X obj 433 212 pdcontrol;
#X msg 433 162 browse https://github.com/rabbitControl/RCP/blob/master/RCPSpecification.md
, f 36;
#X text 226 306 updatevalue for a toggle;
#X obj 133 283 tgl 15 0 empty empty empty 17 7 0 10 #fcfcfc #000000
#000000 0 1;
#X msg 133 305 6 0 2 16 \$1;
#X obj 87 546 print info;
#X obj 149 524 print init;
#X obj 210 502 print discover;
#X obj 332 456 print remove;
#X msg 98 171 2 0;
#X obj 47 49 rcp.parse;
#X text 126 49 - rcp packet parser;
#X obj 88 347 rcp.parse;
#X obj 565 536 rcp.format 1;
#X text 431 140 RabbitControl specification:;
#X text 47 79 Parses rcp packets from a list of bytes. For more information
on rcp packets \, please have a look at the RabbitControl specificiation.
;
#X connect 1 0 27 0;
#X connect 4 0 27 0;
#X connect 6 0 11 0;
#X connect 7 0 27 0;
#X connect 10 0 27 0;
#X connect 11 0 20 0;
#X connect 11 1 21 0;
#X connect 11 2 22 0;
#X connect 11 3 12 0;
#X connect 11 4 23 0;
#X connect 16 0 15 0;
#X connect 18 0 19 0;
#X connect 19 0 27 0;
#X connect 24 0 27 0;
#X connect 27 0 6 0;
#X connect 27 1 0 0;
