#N canvas 111 114 527 427 12;
#X obj 137 305 tgl 15 0 empty empty empty 17 7 0 10 #fcfcfc #000000
#000000 0 1;
#X msg 132 237 1 2 3 4;
#X text 155 305 client connected;
#X msg 97 195 close;
#X msg 87 172 open ws://localhost:12000;
#X msg 77 149 open ws://localhost:10000;
#X text 14 9 RabbitControl for Pd;
#X text 345 369 see also:;
#X text 194 237 send binary data;
#X obj 77 373 print client-binary;
#X obj 107 345 print client-message;
#X obj 47 49 ws.client;
#X text 117 49 - websocket client;
#X obj 77 278 ws.client;
#X obj 423 368 ws.server;
#X text 48 83 A websocket client independent from RabbitControl. It
can receive binary- and message-(string)-data. Currently it is only
possible to send binary data.;
#X connect 1 0 13 0;
#X connect 3 0 13 0;
#X connect 4 0 13 0;
#X connect 5 0 13 0;
#X connect 13 0 9 0;
#X connect 13 1 10 0;
#X connect 13 2 0 0;
