#N canvas 544 203 626 410 12;
#X declare -lib rcp;
#X obj 61 242 rcp.server;
#X msg 61 216 listen 10000;
#X obj 61 121 loadbang;
#X obj 61 161 t b b;
#X msg 93 188 expose f sensor1;
#X obj 283 176 metro 100;
#X obj 283 200 random 100;
#X msg 283 224 sensor1 \$1;
#X obj 105 340 > 0;
#X obj 15 37 declare -lib rcp;
#X obj 137 310 print clients;
#X obj 105 284 t a a;
#X text 14 9 RabbitControl for Pd;
#X text 280 152 change values if some clients are connected;
#X connect 0 2 11 0;
#X connect 1 0 0 0;
#X connect 2 0 3 0;
#X connect 3 0 1 0;
#X connect 3 1 4 0;
#X connect 4 0 0 0;
#X connect 5 0 6 0;
#X connect 6 0 7 0;
#X connect 7 0 0 0;
#X connect 8 0 5 0;
#X connect 11 0 8 0;
#X connect 11 1 10 0;
