#N canvas 59 41 781 741 12;
#X declare -lib rcp;
#X obj 16 31 declare -lib rcp;
#X obj 302 550 rcp.server;
#X msg 536 229 expose i integer;
#X msg 548 251 expose t toggle;
#X msg 249 428 toggle \$1;
#X msg 560 273 expose s mysymbol;
#X msg 154 428 integer \$1;
#X obj 303 638 route update;
#X obj 303 615 list trim;
#X obj 303 683 print server_update;
#X obj 384 661 print server_o;
#X msg 572 295 expose b mybang;
#X msg 55 427 sensor1 \$1;
#X msg 307 260 listen 10000;
#X obj 284 50 loadbang;
#X obj 284 73 t b b b;
#X obj 97 215 int;
#X obj 97 238 t a a;
#X obj 97 261 % 4;
#X obj 97 284 sel 0 1 2 3;
#X obj 148 237 + 1;
#X obj 55 365 random 100;
#X obj 154 364 random 100;
#X obj 55 396 / 100;
#X obj 349 345 random 100;
#X obj 347 579 print clients;
#X obj 267 385 tgl 15 0 empty empty empty 17 7 0 10 #fcfcfc #000000
#000000 0 1;
#X obj 97 192 metro 100;
#X obj 349 399 tosymbol;
#X msg 349 372 test \$1;
#X msg 349 428 mysymbol \$1;
#X text 511 151 1 expose parameter;
#X text 293 151 2 start listening;
#X text 71 151 3 start value changes;
#X msg 524 207 expose f sensor1 @min 0 @max 1;
#X text 14 9 RabbitControl for Pd;
#X connect 1 0 8 0;
#X connect 1 2 25 0;
#X connect 2 0 1 0;
#X connect 3 0 1 0;
#X connect 4 0 1 0;
#X connect 5 0 1 0;
#X connect 6 0 1 0;
#X connect 7 0 9 0;
#X connect 7 1 10 0;
#X connect 8 0 7 0;
#X connect 11 0 1 0;
#X connect 12 0 1 0;
#X connect 13 0 1 0;
#X connect 14 0 15 0;
#X connect 15 0 27 0;
#X connect 15 1 13 0;
#X connect 15 2 34 0;
#X connect 15 2 2 0;
#X connect 15 2 3 0;
#X connect 15 2 5 0;
#X connect 15 2 11 0;
#X connect 16 0 17 0;
#X connect 17 0 18 0;
#X connect 17 1 20 0;
#X connect 18 0 19 0;
#X connect 19 0 21 0;
#X connect 19 1 22 0;
#X connect 19 2 26 0;
#X connect 19 3 24 0;
#X connect 20 0 16 1;
#X connect 21 0 23 0;
#X connect 22 0 6 0;
#X connect 23 0 12 0;
#X connect 24 0 29 0;
#X connect 26 0 4 0;
#X connect 27 0 16 0;
#X connect 28 0 30 0;
#X connect 29 0 28 0;
#X connect 30 0 1 0;
#X connect 34 0 1 0;
